# xmcd
#
# Track frame offsets:
#	150
#	19387
#	41099
#	64376
#	81335
#	100243
#	125419
#	146779
#	176318
#	197890
#
# Disc length: 2880 seconds
#
# Revision: 4294901762
# Processed by: cddbd v1.5.2PL0 Copyright (c) Steve Scherf et al.
# Submitted via: EZCDAudioConverter 8.0.2.1
#
DISCID=930b3e0a
DTITLE=Various Artist - Top Hits 16. Nhớ... Nửa Vầng Trăng
DYEAR=2003
DGENRE=World Pop
TTITLE0=Lương Tùng Quang - Khát khao ánh mặt trời
TTITLE1=Bảo Hân - Dấu yêu ơi
TTITLE2=Don Hồ - Vùng trời bình yên
TTITLE3=Lưu Bích - Nhớ
TTITLE4=Như Loan - Can't Give You Up
TTITLE5=Lâm Nhật Tiến - Con đường nào đến thiên đường
TTITLE6=Tú Quyên - Tình lẻ bóng
TTITLE7=Như Quỳnh - Nửa Vầng Trăng
TTITLE8=Nhật Trung, La Sương Sương - Tình trái ngang
TTITLE9=Lynda Trang Đài, Tommy Ngô - Lời tỏ tình dễ thương 2
EXTD=
EXTT0=
EXTT1=
EXTT2=
EXTT3=
EXTT4=
EXTT5=
EXTT6=
EXTT7=
EXTT8=
EXTT9=
PLAYORDER=
